<?xml version="1.0" ?><svg id="Layer_1" style="enable-background:new 0 0 512 512;" version="1.1" viewBox="0 0 512 512" xml:space="preserve" xmlns="http://www.w3.org/2000/svg" xmlns:xlink="http://www.w3.org/1999/xlink"><style type="text/css">
	.st0{fill:#13283B;}
	.st1{fill:#E7EBEC;}
</style><g id="XMLID_609_"><g id="XMLID_622_"><path class="st0" d="M172.3,284.1l10.8-12.9c7.8-8.4,13.1-14.8,16-19.1c2.9-4.3,4.4-9.3,4.4-14.9    c0-8.3-2.6-14.9-7.9-19.7c-5.3-4.8-12.7-7.1-22.4-7.1c-9.2,0-16.7,2.8-22.2,8.5c-5.6,5.7-8.3,12.6-8.1,20.8l0.1,0.4h20.1    c0-4.1,0.9-7.4,2.6-10c1.8-2.6,4.2-3.9,7.4-3.9c3.4,0,5.9,1,7.4,3c1.5,2,2.3,4.7,2.3,8.2c0,2.4-0.9,5.2-2.6,8.4    c-1.7,3.2-4.4,6.9-8,11.1l-27.2,29.9v13.4h61.5v-15.8h-34.2L172.3,284.1z" id="XMLID_633_"/><path class="st0" d="M247,210.4c-9.3,0-16.8,3-22.4,9c-5.6,6-8.4,14.3-8.4,24.8v23.5c0,10.6,2.8,18.9,8.4,24.8    c5.6,6,13.1,9,22.4,9c9.2,0,16.7-3,22.3-9c5.6-6,8.4-14.3,8.4-24.8v-23.5c0-10.5-2.8-18.8-8.5-24.8    C263.7,213.4,256.2,210.4,247,210.4z M257.4,268.9c0,5.5-0.9,9.7-2.7,12.5c-1.8,2.8-4.3,4.2-7.6,4.2c-3.3,0-5.9-1.4-7.7-4.2    c-1.8-2.8-2.7-7-2.7-12.5v-26.1c0-5.4,0.9-9.5,2.7-12.3c1.8-2.8,4.3-4.3,7.6-4.3c3.2,0,5.8,1.4,7.6,4.3c1.8,2.8,2.8,6.9,2.8,12.3    V268.9z" id="XMLID_630_"/><path class="st0" d="M322.9,246.4c3.4-3.4,5.1-7.8,5.1-13v-4.7c0-5.3-1.7-9.6-5.1-13.1c-3.4-3.5-8.3-5.2-14.6-5.2    c-6.3,0-11.1,1.7-14.5,5.2c-3.4,3.5-5.1,7.8-5.1,13.1v4.7c0,5.2,1.7,9.6,5.1,13c3.4,3.4,8.3,5.2,14.6,5.2    C314.7,251.6,319.5,249.9,322.9,246.4z M301.8,233.4v-4.7c0-2,0.6-3.7,1.7-5.1c1.1-1.4,2.7-2.1,4.8-2.1c2.1,0,3.7,0.7,4.9,2.1    c1.1,1.4,1.7,3.1,1.7,5.1v4.7c0,2-0.6,3.7-1.7,5.1c-1.1,1.4-2.7,2-4.8,2c-2.1,0-3.8-0.7-4.9-2    C302.3,237.1,301.8,235.4,301.8,233.4z" id="XMLID_627_"/><polygon class="st0" id="XMLID_626_" points="344.9,219.6 301.6,288.8 311.2,293.6 354.4,224.4   "/><path class="st0" d="M365,265.4c-3.4-3.4-8.3-5.2-14.6-5.2c-6.3,0-11.1,1.7-14.6,5.2c-3.4,3.5-5.2,7.8-5.2,13v4.7    c0,5.3,1.7,9.6,5.2,13.1c3.5,3.4,8.4,5.2,14.7,5.2c6.3,0,11.1-1.7,14.5-5.1c3.4-3.4,5.1-7.8,5.1-13.1v-4.7    C370.1,273.2,368.4,268.9,365,265.4z M357,283.2c0,2.3-0.4,4-1.3,5.3c-0.9,1.3-2.6,1.9-5.1,1.9c-1.9,0-3.4-0.7-4.7-2.1    c-1.3-1.4-1.9-3.1-1.9-5v-4.7c0-2,0.6-3.7,1.7-5.1c1.1-1.4,2.8-2.1,4.9-2.1c2.1,0,3.7,0.7,4.8,2.1c1.2,1.4,1.7,3.1,1.7,5.1V283.2z    " id="XMLID_623_"/></g><g id="XMLID_500_"><g id="XMLID_573_"><path class="st1" d="M256.4,505.9c-66.8,0-129.6-26-176.8-73.2c-47.2-47.2-73.2-110-73.2-176.8     s26-129.6,73.2-176.8c47.2-47.2,110-73.2,176.8-73.2s129.6,26,176.8,73.2c47.2,47.2,73.2,110,73.2,176.8s-26,129.6-73.2,176.8     C386,479.9,323.2,505.9,256.4,505.9z M256.4,51.4c-112.8,0-204.5,91.8-204.5,204.5s91.8,204.5,204.5,204.5S461,368.7,461,255.9     S369.2,51.4,256.4,51.4z" id="XMLID_589_"/></g><g id="XMLID_576_"><path class="st0" d="M455.4,208.1c-10.5-43.7-35.6-83.3-70.8-111.7C347.9,67,303.6,51.4,256.4,51.4V5.9     c29,0,57.4,4.9,84.4,14.6c26.1,9.4,50.4,23,72.1,40.5c43,34.6,73.8,83.1,86.6,136.5L455.4,208.1z" id="XMLID_588_"/></g></g></g></svg>